<svg width="30" height="30" viewBox="0 0 30 30" fill="none" xmlns="http://www.w3.org/2000/svg">
<path d="M0.5 15C0.5 6.99187 6.99187 0.5 15 0.5C23.0081 0.5 29.5 6.99187 29.5 15C29.5 23.0081 23.0081 29.5 15 29.5C6.99187 29.5 0.5 23.0081 0.5 15Z" fill="#0D1012"/>
<path d="M0.5 15C0.5 6.99187 6.99187 0.5 15 0.5C23.0081 0.5 29.5 6.99187 29.5 15C29.5 23.0081 23.0081 29.5 15 29.5C6.99187 29.5 0.5 23.0081 0.5 15Z" stroke="#333841"/>
<path d="M21.1905 14.8104L8.80957 14.8104" stroke="white" stroke-linecap="round" stroke-linejoin="round"/>
<path d="M12.1429 18.1438L8.80957 14.8105L12.1429 11.4772" stroke="white" stroke-linecap="round" stroke-linejoin="round"/>
</svg>
