<svg width="18" height="18" viewBox="0 0 18 18" fill="none" xmlns="http://www.w3.org/2000/svg">
<g id="bento menu 1">
<g id="Icon">
<path d="M1.83783 3.00092C1.83783 2.58724 1.83783 2.3804 1.91834 2.2224C1.98915 2.08341 2.10215 1.97042 2.24114 1.8996C2.39914 1.81909 2.60598 1.81909 3.01966 1.81909H6.56516C6.97884 1.81909 7.18568 1.81909 7.34368 1.8996C7.48267 1.97042 7.59566 2.08341 7.66648 2.2224C7.74699 2.3804 7.74699 2.58724 7.74699 3.00092V6.54642C7.74699 6.9601 7.74699 7.16694 7.66648 7.32494C7.59566 7.46393 7.48267 7.57693 7.34368 7.64774C7.18568 7.72825 6.97884 7.72825 6.56516 7.72825H3.01966C2.60598 7.72825 2.39914 7.72825 2.24114 7.64774C2.10215 7.57693 1.98915 7.46393 1.91834 7.32494C1.83783 7.16694 1.83783 6.9601 1.83783 6.54642V3.00092Z" stroke="white"/>
<path d="M1.83784 11.4537C1.83784 11.04 1.83784 10.8331 1.91835 10.6751C1.98916 10.5361 2.10216 10.4231 2.24115 10.3523C2.39915 10.2718 2.60599 10.2718 3.01967 10.2718H6.56517C6.97884 10.2718 7.18569 10.2718 7.34369 10.3523C7.48267 10.4231 7.59567 10.5361 7.66649 10.6751C7.747 10.8331 7.747 11.04 7.747 11.4537V14.9991C7.747 15.4128 7.747 15.6197 7.66649 15.7777C7.59567 15.9167 7.48267 16.0297 7.34369 16.1005C7.18569 16.181 6.97885 16.181 6.56517 16.181H3.01967C2.60599 16.181 2.39915 16.181 2.24115 16.1005C2.10216 16.0297 1.98916 15.9167 1.91835 15.7777C1.83784 15.6197 1.83784 15.4128 1.83784 14.9991V11.4537Z" stroke="white"/>
<path d="M10.2531 3.00092C10.2531 2.58724 10.2531 2.3804 10.3337 2.2224C10.4045 2.08341 10.5175 1.97042 10.6565 1.8996C10.8145 1.81909 11.0213 1.81909 11.435 1.81909H14.9805C15.3942 1.81909 15.601 1.81909 15.759 1.8996C15.898 1.97042 16.011 2.08341 16.0818 2.2224C16.1623 2.3804 16.1623 2.58724 16.1623 3.00092V6.54642C16.1623 6.9601 16.1623 7.16694 16.0818 7.32494C16.011 7.46393 15.898 7.57693 15.759 7.64774C15.601 7.72825 15.3942 7.72825 14.9805 7.72825H11.435C11.0213 7.72825 10.8145 7.72825 10.6565 7.64774C10.5175 7.57693 10.4045 7.46393 10.3337 7.32494C10.2531 7.16694 10.2531 6.9601 10.2531 6.54642V3.00092Z" stroke="white"/>
<path d="M10.2532 11.4537C10.2532 11.04 10.2532 10.8331 10.3337 10.6751C10.4045 10.5361 10.5175 10.4231 10.6565 10.3523C10.8145 10.2718 11.0213 10.2718 11.435 10.2718H14.9805C15.3942 10.2718 15.601 10.2718 15.759 10.3523C15.898 10.4231 16.011 10.5361 16.0818 10.6751C16.1623 10.8331 16.1623 11.04 16.1623 11.4537V14.9991C16.1623 15.4128 16.1623 15.6197 16.0818 15.7777C16.011 15.9167 15.898 16.0297 15.759 16.1005C15.601 16.181 15.3942 16.181 14.9805 16.181H11.435C11.0213 16.181 10.8145 16.181 10.6565 16.1005C10.5175 16.0297 10.4045 15.9167 10.3337 15.7777C10.2532 15.6197 10.2532 15.4128 10.2532 14.9991V11.4537Z" stroke="white"/>
</g>
</g>
</svg>
