<svg width="20" height="20" viewBox="0 0 20 20" fill="none" xmlns="http://www.w3.org/2000/svg">
<g id="dextools 1">
<path id="Vector" fill-rule="evenodd" clip-rule="evenodd" d="M7.68687 1.14137C6.45514 1.76133 5.44742 2.28594 5.44764 2.30728C5.44818 2.36235 8.40382 3.80864 8.50872 3.80511C8.55644 3.80357 8.90262 3.6496 9.27797 3.463L9.96052 3.12379L10.706 3.49401L11.4514 3.86431L12.6721 3.33431C14.5115 2.53568 14.7025 2.44816 14.6726 2.41876C14.6329 2.37975 13.9731 2.03729 12.1831 1.12677C11.3181 0.686699 10.4785 0.255228 10.3173 0.16792C10.1561 0.0806122 10.0022 0.0103787 9.97535 0.0117382C9.94848 0.0130977 8.91862 0.521439 7.68687 1.14137ZM2.28453 3.8444L1.00231 4.48434V7.29289C1.00231 8.83762 1.01915 10.1014 1.0398 10.1014C1.06038 10.1014 1.69124 9.8372 2.44166 9.51426L3.80608 8.92709V5.96668L4.47282 6.31767C4.98661 6.58788 5.5007 6.85755 6.0151 7.12667L6.89061 7.58468L7.28019 7.41447C7.52452 7.30755 7.76836 7.19958 8.01171 7.09058C8.19975 7.00597 8.66135 6.80508 9.03746 6.64409C9.41357 6.48302 9.76172 6.32105 9.81109 6.28414C9.87667 6.23511 9.077 5.80813 6.85333 4.70481C5.17718 3.87313 3.75199 3.19531 3.68627 3.19856C3.62054 3.20181 2.98976 3.4924 2.28453 3.8444ZM14.9037 4.02411C14.0304 4.40502 13.3153 4.7319 13.3145 4.75055C13.3137 4.76916 13.7897 5.04261 14.3722 5.35811C14.9548 5.67367 15.4314 5.94873 15.4314 5.96945C15.4314 5.99012 14.9159 6.23144 14.286 6.50583C13.6559 6.78015 12.0635 7.47502 10.7471 8.05L6.33629 9.9764C5.22676 10.461 4.22664 10.8978 4.11382 10.9472C1.84754 11.9385 1.22462 12.2136 1.13908 12.2608C1.05306 12.3083 1.03358 12.5845 1.01827 13.9705L1 15.6237L2.14661 16.1882L3.2932 16.7527L4.88313 16.0594C5.75761 15.6781 6.47305 15.3461 6.47305 15.3217C6.47305 15.2973 6.31146 15.1956 6.11405 15.0955C5.91654 14.9955 5.50883 14.774 5.20794 14.6032C4.90707 14.4325 4.60706 14.2758 4.5412 14.255C4.47535 14.2343 4.42243 14.1981 4.42351 14.1744C4.4246 14.1509 5.12473 13.8295 5.97926 13.4603C7.63901 12.7433 8.90918 12.1907 11.6361 10.9992C12.8554 10.4665 14.0749 9.93412 15.2946 9.40209C16.3665 8.9346 17.6128 8.38861 18.0642 8.18879L18.8848 7.82548L18.903 6.15349L18.9214 4.48157L17.7584 3.90482C17.1188 3.58764 16.572 3.32889 16.5434 3.32984C16.5147 3.33071 15.7769 3.6431 14.9037 4.02411ZM18.5732 10.056C18.4018 10.1369 18.0633 10.2883 17.821 10.3925C17.5787 10.4967 17.1188 10.6971 16.7991 10.8381L16.2178 11.0943L16.2045 12.5621C16.1972 13.3694 16.1664 14.0264 16.1362 14.0221C16.0674 14.0122 14.9779 13.4724 13.8828 12.9054C13.0924 12.4962 13.0428 12.4799 12.8571 12.5688C12.7497 12.6202 12.1079 12.8983 11.4309 13.1869C10.7539 13.4755 10.1779 13.7304 10.1508 13.7535C10.1238 13.7766 11.4864 14.4901 13.1788 15.3393L16.2559 16.8832L17.5704 16.2262C18.2933 15.8649 18.908 15.5353 18.9363 15.4939C19 15.4007 18.9945 9.89614 18.9307 9.90359C18.9055 9.90651 18.7446 9.97511 18.5732 10.056ZM11.2942 16.5169C11.0661 16.6116 10.8382 16.7065 10.6103 16.8015C9.92215 17.0891 10.057 17.0987 9.23831 16.7049C8.69302 16.4426 8.45797 16.3617 8.35595 16.401C8.27942 16.4304 7.62081 16.7167 6.89225 17.0372C6.16374 17.3576 5.54241 17.6198 5.5115 17.6198C5.20584 17.6198 5.71399 17.9131 7.67485 18.8689L9.97447 19.9896L10.942 19.528C11.4742 19.2742 12.5476 18.7658 13.3273 18.3984C14.1071 18.0309 14.7354 17.7206 14.7236 17.7089C14.7118 17.6973 14.0584 17.3731 13.2717 16.9886L11.8412 16.2895L11.2942 16.5169Z" fill="white"/>
</g>
</svg>
