<svg width="20" height="20" viewBox="0 0 20 20" fill="none" xmlns="http://www.w3.org/2000/svg">
<g id="pencil--change-edit-modify-pencil-write-writing">
<path id="Line 1" d="M16.7969 16.1129L3.20307 16.1129" stroke="#A0A0A0" stroke-linecap="round"/>
<path id="Vector" d="M7.91019 14.795L3.20312 16.113L4.5211 11.4059L13.1403 2.82858C13.2377 2.72895 13.354 2.64979 13.4825 2.59574C13.6109 2.54169 13.7488 2.51385 13.8882 2.51385C14.0275 2.51385 14.1654 2.54169 14.2939 2.59574C14.4223 2.64979 14.5386 2.72895 14.6361 2.82858L16.4875 4.69048C16.5855 4.78772 16.6634 4.90341 16.7165 5.03088C16.7696 5.15834 16.7969 5.29506 16.7969 5.43315C16.7969 5.57124 16.7696 5.70796 16.7165 5.83542C16.6634 5.96289 16.5855 6.07858 16.4875 6.17582L7.91019 14.795Z" stroke="#89FF69" stroke-linecap="round" stroke-linejoin="round"/>
</g>
</svg>
