<svg width="28" height="28" viewBox="0 0 28 28" fill="none" xmlns="http://www.w3.org/2000/svg">
<g id="ethereum (3) 1" clip-path="url(#clip0_2001_232)">
<path id="Vector" d="M27.2833 14C27.2833 21.3362 21.3362 27.2833 14 27.2833C6.66383 27.2833 0.716675 21.3362 0.716675 14C0.716675 6.66383 6.66383 0.716675 14 0.716675C21.3362 0.716675 27.2833 6.66383 27.2833 14Z" fill="black" stroke="#3CAA1E" stroke-width="0.5"/>
<g id="Vector_2" filter="url(#filter0_d_2001_232)">
<path d="M19.9173 15.2927L14.1913 17.7427C14.1313 17.7703 14.0661 17.7847 14 17.7847C13.9339 17.7847 13.8686 17.7703 13.8087 17.7427L8.08265 15.2927C8.0336 15.271 7.9787 15.2664 7.92672 15.2796C7.87475 15.2928 7.82869 15.3231 7.79592 15.3655C7.76315 15.408 7.74554 15.4602 7.74592 15.5138C7.74629 15.5674 7.76462 15.6194 7.79799 15.6613L13.6173 23.1467C13.6628 23.2048 13.7208 23.2518 13.7871 23.2841C13.8534 23.3164 13.9262 23.3332 14 23.3332C14.0737 23.3332 14.1465 23.3164 14.2128 23.2841C14.2791 23.2518 14.3372 23.2048 14.3827 23.1467L20.202 15.6613C20.2354 15.6194 20.2537 15.5674 20.2541 15.5138C20.2544 15.4602 20.2368 15.408 20.2041 15.3655C20.1713 15.3231 20.1252 15.2928 20.0733 15.2796C20.0213 15.2664 19.9664 15.271 19.9173 15.2927Z" fill="#89FF69"/>
</g>
<path id="Vector_3" d="M14 17.7847V23.3333C13.9264 23.3325 13.8538 23.3153 13.7877 23.283C13.7215 23.2507 13.6633 23.2042 13.6173 23.1467L7.79799 15.6613C7.76462 15.6194 7.74629 15.5674 7.74592 15.5138C7.74554 15.4602 7.76315 15.408 7.79592 15.3655C7.82869 15.3231 7.87475 15.2928 7.92672 15.2796C7.9787 15.2664 8.0336 15.271 8.08265 15.2927L13.8087 17.7427C13.8686 17.7704 13.9339 17.7847 14 17.7847Z" fill="#42AA25"/>
<g id="Vector_4" filter="url(#filter1_d_2001_232)">
<path d="M20.328 12.502L14.378 4.85333C14.3336 4.79527 14.2764 4.74823 14.2108 4.71585C14.1453 4.68347 14.0731 4.66663 14 4.66663C13.9269 4.66663 13.8548 4.68347 13.7892 4.71585C13.7237 4.74823 13.6664 4.79527 13.622 4.85333L7.67201 12.502C7.62784 12.5601 7.59745 12.6274 7.58314 12.6989C7.56883 12.7705 7.57097 12.8443 7.5894 12.9149C7.60784 12.9855 7.64208 13.0509 7.68953 13.1063C7.73699 13.1617 7.79643 13.2056 7.86335 13.2347L13.8133 15.7873C13.8725 15.812 13.9359 15.8247 14 15.8247C14.0641 15.8247 14.1275 15.812 14.1867 15.7873L20.1367 13.2347C20.2036 13.2056 20.263 13.1617 20.3105 13.1063C20.358 13.0509 20.3922 12.9855 20.4106 12.9149C20.4291 12.8443 20.4312 12.7705 20.4169 12.6989C20.4026 12.6274 20.3722 12.5601 20.328 12.502Z" fill="#89FF69"/>
</g>
<path id="Vector_5" d="M20.4167 12.8893L14 10.5933V4.66666C14.0729 4.66758 14.1448 4.68482 14.2102 4.71712C14.2756 4.74943 14.3329 4.79596 14.378 4.85332L20.328 12.502C20.37 12.5562 20.3997 12.619 20.4151 12.6859C20.4304 12.7528 20.4309 12.8222 20.4167 12.8893Z" fill="#42AA25"/>
<path id="Vector_6" d="M14 10.5933V15.8247C13.936 15.8244 13.8726 15.8118 13.8133 15.7873L7.86334 13.2347C7.79196 13.2044 7.72909 13.1571 7.68026 13.0969C7.63144 13.0367 7.59816 12.9654 7.58334 12.8893L14 10.5933Z" fill="#42AA25"/>
<path id="Vector_7" d="M14 4.66666V10.5933L7.58332 12.8893C7.56907 12.8222 7.56962 12.7528 7.58494 12.6859C7.60025 12.619 7.62996 12.5562 7.67199 12.502L13.622 4.85332C13.6671 4.79596 13.7244 4.74943 13.7898 4.71712C13.8552 4.68482 13.927 4.66758 14 4.66666Z" fill="#2A591D"/>
</g>
<defs>
<filter id="filter0_d_2001_232" x="-2.75409" y="4.77225" width="33.5081" height="29.0609" filterUnits="userSpaceOnUse" color-interpolation-filters="sRGB">
<feFlood flood-opacity="0" result="BackgroundImageFix"/>
<feColorMatrix in="SourceAlpha" type="matrix" values="0 0 0 0 0 0 0 0 0 0 0 0 0 0 0 0 0 0 127 0" result="hardAlpha"/>
<feMorphology radius="1" operator="dilate" in="SourceAlpha" result="effect1_dropShadow_2001_232"/>
<feOffset/>
<feGaussianBlur stdDeviation="4.75"/>
<feComposite in2="hardAlpha" operator="out"/>
<feColorMatrix type="matrix" values="0 0 0 0 0.435424 0 0 0 0 1 0 0 0 0 0.279264 0 0 0 0.5 0"/>
<feBlend mode="normal" in2="BackgroundImageFix" result="effect1_dropShadow_2001_232"/>
<feBlend mode="normal" in="SourceGraphic" in2="effect1_dropShadow_2001_232" result="shape"/>
</filter>
<filter id="filter1_d_2001_232" x="-2.92621" y="-5.83337" width="33.8524" height="32.1581" filterUnits="userSpaceOnUse" color-interpolation-filters="sRGB">
<feFlood flood-opacity="0" result="BackgroundImageFix"/>
<feColorMatrix in="SourceAlpha" type="matrix" values="0 0 0 0 0 0 0 0 0 0 0 0 0 0 0 0 0 0 127 0" result="hardAlpha"/>
<feMorphology radius="1" operator="dilate" in="SourceAlpha" result="effect1_dropShadow_2001_232"/>
<feOffset/>
<feGaussianBlur stdDeviation="4.75"/>
<feComposite in2="hardAlpha" operator="out"/>
<feColorMatrix type="matrix" values="0 0 0 0 0.435424 0 0 0 0 1 0 0 0 0 0.279264 0 0 0 0.5 0"/>
<feBlend mode="normal" in2="BackgroundImageFix" result="effect1_dropShadow_2001_232"/>
<feBlend mode="normal" in="SourceGraphic" in2="effect1_dropShadow_2001_232" result="shape"/>
</filter>
<clipPath id="clip0_2001_232">
<rect width="28" height="28" fill="white"/>
</clipPath>
</defs>
</svg>
