<svg width="20" height="20" viewBox="0 0 20 20" fill="none" xmlns="http://www.w3.org/2000/svg">
<g id="logout-1--arrow-exit-frame-leave-logout-rectangle-right">
<path id="Vector" d="M12.9762 14.1667V16.5476C12.9762 16.8633 12.8508 17.1662 12.6276 17.3894C12.4043 17.6127 12.1015 17.7381 11.7858 17.7381H3.45244C3.13671 17.7381 2.8339 17.6127 2.61065 17.3894C2.38739 17.1662 2.26196 16.8633 2.26196 16.5476V3.45238C2.26196 3.13664 2.38739 2.83384 2.61065 2.61058C2.8339 2.38733 3.13671 2.2619 3.45244 2.2619H11.7858C12.1015 2.2619 12.4043 2.38733 12.6276 2.61058C12.8508 2.83384 12.9762 3.13664 12.9762 3.45238V5.83333" stroke="white" stroke-linecap="round" stroke-linejoin="round"/>
<path id="Vector_2" d="M9.40479 10H17.7381" stroke="white" stroke-linecap="round" stroke-linejoin="round"/>
<path id="Vector_3" d="M15.3572 7.61902L17.7381 9.99997L15.3572 12.3809" stroke="white" stroke-linecap="round" stroke-linejoin="round"/>
</g>
</svg>
