<svg width="170" height="40" viewBox="0 0 170 40" fill="none" xmlns="http://www.w3.org/2000/svg">
<g id="Logo">
<g id="Group">
<path id="Vector" d="M18.0796 14.4082L13.7016 18.7862C13.0314 19.4564 13.0314 20.543 13.7016 21.2132L18.0796 25.5912C18.7498 26.2614 19.8364 26.2614 20.5066 25.5912L24.8846 21.2132C25.5548 20.543 25.5548 19.4564 24.8846 18.7862L20.5066 14.4082C19.8364 13.738 18.7498 13.738 18.0796 14.4082Z" fill="#89FF69"/>
<path id="Vector_2" d="M22.6817 30.5233C20.8104 32.3946 17.7754 32.3946 15.9041 30.5233L8.76941 23.3886C6.89808 21.5172 6.89808 18.4823 8.76941 16.611L15.9041 9.47627C17.7754 7.60494 20.8104 7.60494 22.6817 9.47627L24.629 11.4236L27.639 14.4335L30.7054 11.3671L27.3426 8.00439L25.0914 5.75315C21.8882 2.54997 16.6965 2.54997 13.4933 5.75315L5.04521 14.2002C1.84203 17.4033 1.84203 22.5951 5.04521 25.7983L13.4933 34.2464C16.6965 37.4495 21.8882 37.4495 25.0914 34.2464L27.8105 31.5273L24.7441 28.4609L22.6817 30.5233Z" fill="white"/>
<path id="Vector_3" d="M9.58893 20.7584V18.683C9.58893 18.4552 9.40426 18.2705 9.17645 18.2705H0.412488C0.184685 18.2705 1.43051e-05 18.4552 1.43051e-05 18.683V20.7584C1.43051e-05 20.9862 0.184685 21.1708 0.412488 21.1708H9.17645C9.40426 21.1708 9.58893 20.9862 9.58893 20.7584Z" fill="#89FF69"/>
<path id="Vector_4" d="M18.2552 5.9942H20.3306C20.5584 5.9942 20.743 5.80953 20.743 5.58173V1.11942C20.743 0.891619 20.5584 0.706948 20.3306 0.706948H18.2552C18.0274 0.706948 17.8427 0.891619 17.8427 1.11942V5.58173C17.8427 5.80953 18.0274 5.9942 18.2552 5.9942Z" fill="white"/>
<path id="Vector_5" d="M18.2552 39.2924H20.3306C20.5584 39.2924 20.743 39.1077 20.743 38.8799V34.4176C20.743 34.1898 20.5584 34.0051 20.3306 34.0051H18.2552C18.0274 34.0051 17.8427 34.1898 17.8427 34.4176V38.8799C17.8427 39.1077 18.0274 39.2924 18.2552 39.2924Z" fill="white"/>
<path id="Vector_6" d="M37.7358 18.3963L33.2106 13.871L33.5395 14.1999L30.7053 11.3658L27.6389 14.4322L29.8163 16.6096C31.6877 18.4809 31.6877 21.5159 29.8163 23.3872L27.754 25.4496L30.8204 28.516L33.5395 25.7969L33.2106 26.1258L37.7358 21.6005C38.6216 20.7148 38.6216 19.2798 37.7358 18.3952V18.3963Z" fill="#89FF69"/>
</g>
<g id="Group_2">
<path id="Vector_7" d="M49.8735 23.4018C49.0844 22.4597 48.6893 21.0269 48.6893 19.1034C48.6893 17.18 49.0822 15.7374 49.8692 14.792C50.6561 13.8476 51.9771 13.3744 53.8343 13.3744C55.6915 13.3744 57.0125 13.8487 57.7995 14.7963C58.5865 15.7439 58.9794 17.18 58.9794 19.1034C58.9794 21.0269 58.5865 22.4597 57.7995 23.4018C57.0125 24.344 55.6915 24.8151 53.8343 24.8151C51.9771 24.8151 50.6626 24.344 49.8735 23.4018ZM55.8522 22.4466C56.3634 21.9462 56.6196 20.8315 56.6196 19.1034C56.6196 17.3754 56.3634 16.2313 55.8522 15.7385C55.3409 15.2468 54.668 15.0004 53.8343 15.0004C53.0007 15.0004 52.3364 15.2468 51.8252 15.7385C51.3139 16.2302 51.0577 17.3515 51.0577 19.1034C51.0577 20.8553 51.3128 21.9473 51.8252 22.4466C52.3364 22.947 53.0061 23.1967 53.8343 23.1967C54.6625 23.1967 55.3409 22.947 55.8522 22.4466Z" fill="white"/>
<path id="Vector_8" d="M62.6134 20.2374C62.6134 21.3598 62.7578 22.1348 63.0465 22.5592C63.3353 22.9847 63.7857 23.1974 64.3969 23.1974C65.008 23.1974 65.5691 22.9597 66.0142 22.4843C66.4592 22.0089 66.6817 21.388 66.6817 20.6206L67.8323 21.1622C67.8323 22.0078 67.4546 22.8273 66.698 23.6219C65.9414 24.4164 64.8907 24.8137 63.5459 24.8137C62.3117 24.8137 61.4574 24.4132 60.982 23.6132C60.5066 22.8132 60.2689 21.7234 60.2689 20.3449V14.8416H62.6124V20.2363L62.6134 20.2374ZM66.6741 23.1139V14.8503H69.0176V24.7312H67.2082L66.6741 23.1139Z" fill="white"/>
<path id="Vector_9" d="M79.2817 14.8503H81.0999L81.6165 16.46V28.425H79.2817V14.8503ZM81.825 23.9768C81.0022 23.4351 80.5908 22.8468 80.5908 22.2129L81.6165 21.1209C81.6165 21.6876 81.8488 22.1749 82.3123 22.5798C82.7769 22.9858 83.3229 23.1887 83.9514 23.1887C84.6298 23.1887 85.1562 22.9543 85.5318 22.4843C85.9074 22.0143 86.0951 21.1123 86.0951 19.7782C86.0951 18.4442 85.9074 17.5574 85.5318 17.0852C85.1562 16.6131 84.6298 16.3764 83.9514 16.3764C83.3229 16.3764 82.7769 16.5794 82.3123 16.9854C81.8478 17.3913 81.6165 17.8722 81.6165 18.4279L80.5908 17.3522C80.5908 16.7183 81.0022 16.1279 81.825 15.5808C82.6477 15.0337 83.6257 14.7591 84.76 14.7591C86.0387 14.7591 86.9754 15.1922 87.5703 16.0595C88.1651 16.9267 88.4625 18.1631 88.4625 19.7696C88.4625 21.376 88.1651 22.6069 87.5703 23.4796C86.9754 24.3524 86.0387 24.7887 84.76 24.7887C83.6257 24.7887 82.6477 24.5173 81.825 23.9757V23.9768Z" fill="white"/>
<path id="Vector_10" d="M90.7462 23.4722C90.0233 22.5713 89.6618 21.3404 89.6618 19.7784C89.6618 18.2165 90.0287 16.9042 90.7625 16.0434C91.4908 15.1815 92.6935 14.7506 94.3727 14.7506C96.0519 14.7506 97.3241 15.1837 98.0253 16.051C98.7145 16.9291 99.0597 18.1665 99.0597 19.7611C99.0597 20.0227 99.0434 20.2615 99.0098 20.4786H91.7057V19.0523H96.6923C96.637 18.0515 96.4448 17.3514 96.117 16.9508C95.7002 16.4949 95.1217 16.267 94.3825 16.267C93.6433 16.267 93.0647 16.5112 92.6143 17.0008C92.1584 17.4849 91.9304 18.4097 91.9304 19.7774C91.9304 21.145 92.1551 22.0145 92.6056 22.5203C93.0452 23.037 93.6476 23.2953 94.415 23.2953V24.8128C92.6859 24.8128 91.4637 24.3656 90.7462 23.4701V23.4722ZM95.5493 23.1054C95.8609 22.9719 96.1051 22.7472 96.2831 22.4302C96.4557 22.1133 96.5946 21.7518 96.6999 21.3458L98.8014 21.9298C98.6961 22.5919 98.4508 23.1358 98.0676 23.5645C97.6844 23.9976 97.2112 24.3146 96.65 24.5154C96.0888 24.7151 95.3431 24.816 94.415 24.816V23.2986C94.8601 23.2986 95.2378 23.2345 95.5493 23.1064V23.1054Z" fill="white"/>
<path id="Vector_11" d="M100.577 14.8504H102.395L102.912 16.6425V24.7302H100.577V14.8493V14.8504ZM106.273 17.0267C105.973 16.5991 105.542 16.3852 104.98 16.3852C104.341 16.3852 103.835 16.6045 103.462 17.0441C103.09 17.4837 102.903 17.9809 102.903 18.5366L102.002 17.97C102.002 17.0691 102.354 16.3093 103.058 15.6895C103.761 15.0697 104.693 14.7603 105.855 14.7603C107.089 14.7603 107.932 15.1511 108.385 15.9315C108.838 16.713 109.064 17.9364 109.064 19.6047H106.721C106.721 18.3152 106.571 17.4566 106.27 17.0278L106.273 17.0267Z" fill="white"/>
<path id="Vector_12" d="M112.001 16.46H109.991V14.8503H112.001V14.3835C112.001 13.3556 112.426 12.6295 113.276 12.2072C114.127 11.785 115.31 11.5733 116.828 11.5733H117.153V13.1244H116.886C116.024 13.1244 115.385 13.208 114.968 13.3741C114.551 13.5412 114.343 13.8799 114.343 14.3911V14.8503H117.078V16.46H114.343V24.7312H112V16.46H112.001Z" fill="white"/>
<path id="Vector_13" d="M119.114 23.5265C118.369 22.6733 117.997 21.4153 117.997 19.7534C117.997 18.0916 118.369 16.8401 119.114 16.001C119.858 15.162 121.067 14.7419 122.74 14.7419C124.413 14.7419 125.622 15.162 126.368 16.001C127.112 16.8401 127.485 18.0916 127.485 19.7534C127.485 21.4153 127.112 22.6733 126.368 23.5265C125.623 24.3796 124.414 24.8062 122.74 24.8062C121.066 24.8062 119.858 24.3796 119.114 23.5265ZM124.467 22.5094C124.917 22.0448 125.142 21.132 125.142 19.7708C125.142 18.4096 124.917 17.4892 124.467 17.0279C124.017 16.5665 123.441 16.3353 122.741 16.3353C122.041 16.3353 121.466 16.5665 121.015 17.0279C120.565 17.4892 120.34 18.4042 120.34 19.7708C120.34 21.1374 120.565 22.0459 121.015 22.5094C121.466 22.974 122.041 23.2063 122.741 23.2063C123.441 23.2063 124.017 22.974 124.467 22.5094Z" fill="white"/>
<path id="Vector_14" d="M128.961 14.8504H130.779L131.296 16.6425V24.7302H128.961V14.8493V14.8504ZM134.656 17.0267C134.356 16.5991 133.926 16.3852 133.363 16.3852C132.724 16.3852 132.218 16.6045 131.846 17.0441C131.474 17.4837 131.287 17.9809 131.287 18.5366L130.386 17.97C130.386 17.0691 130.738 16.3093 131.441 15.6895C132.144 15.0697 133.077 14.7603 134.238 14.7603C135.472 14.7603 136.316 15.1511 136.769 15.9315C137.221 16.713 137.448 17.9364 137.448 19.6047H135.106C135.106 18.3152 134.955 17.4566 134.655 17.0278L134.656 17.0267Z" fill="white"/>
<path id="Vector_15" d="M139.174 14.8503H140.992L141.517 16.4014V24.7312H139.174V14.8503ZM144.902 19.0282C144.902 18.1002 144.782 17.4272 144.544 17.0104C144.305 16.5936 143.915 16.3852 143.376 16.3852C142.836 16.3852 142.368 16.6164 142.021 17.0777C141.674 17.539 141.5 18.212 141.5 19.0955L140.257 18.5615C140.257 17.6106 140.639 16.7412 141.403 15.9521C142.168 15.1629 143.084 14.7678 144.151 14.7678C145.367 14.7678 146.186 15.1651 146.606 15.9607C147.026 16.7564 147.236 17.717 147.236 18.8459V24.7323H144.901V19.0293L144.902 19.0282ZM150.597 19.0282C150.597 18.1002 150.483 17.4272 150.255 17.0104C150.027 16.5936 149.641 16.3852 149.096 16.3852C148.551 16.3852 148.097 16.6164 147.749 17.0777C147.402 17.539 147.228 18.212 147.228 19.0955L145.978 18.5615C145.978 17.6334 146.361 16.7694 147.128 15.9683C147.896 15.1684 148.813 14.7678 149.88 14.7678C151.097 14.7678 151.912 15.1673 152.323 15.964C152.734 16.7618 152.941 17.7224 152.941 18.8448V24.7312H150.597V19.0282Z" fill="white"/>
<path id="Vector_16" d="M158.06 13.4575H161.428L165.088 24.7311H162.645L161.794 21.8296H157.699L156.841 24.7311H154.397L158.058 13.4575H158.06ZM161.404 20.2612L159.762 14.8502H159.737L158.094 20.2612H161.405H161.404Z" fill="white"/>
<path id="Vector_17" d="M166.64 13.475H169V24.7312H166.64V13.475Z" fill="white"/>
<path id="Vector_18" d="M70.191 14.8503H70.1519V16.4688H70.1715V16.4677H77.914V16.4688V14.8514H70.191V14.8503Z" fill="#89FF69"/>
<path id="Vector_19" d="M76.1306 23.2725C75.7029 23.2725 75.3707 23.1835 75.1341 23.0055C74.8975 22.8275 74.7803 22.4552 74.7803 21.8886V20.0563H74.7792V16.4689H72.4378V22.4139C72.4378 23.3365 72.7168 23.9737 73.2758 24.3232C73.8348 24.6738 74.5219 24.8486 75.3393 24.8486C76.034 24.8486 76.6983 24.7759 77.3322 24.6315V23.0641C76.9425 23.203 76.543 23.2725 76.1316 23.2725H76.1306Z" fill="white"/>
<path id="Vector_20" d="M74.7781 12.5992H72.4357V14.8504V14.8515H74.7781V12.5992Z" fill="white"/>
</g>
</g>
</svg>
