<svg width="92" height="92" viewBox="0 0 92 92" fill="none" xmlns="http://www.w3.org/2000/svg">
<rect width="92" height="92" fill="#00030B"/>
<path d="M22.6075 68.4999C22.4708 68.6366 22.4708 68.8582 22.6075 68.9949C22.7442 69.1316 22.9658 69.1316 23.1025 68.9949L22.6075 68.4999ZM23.1025 68.9949L68.1142 23.9833L67.6192 23.4884L22.6075 68.4999L23.1025 68.9949Z" fill="#89FF69"/>
<path d="M46.2558 73.8583L65.2121 54.902" stroke="white" stroke-opacity="0.3" stroke-width="0.7"/>
<path d="M18.4503 46.0444L37.4023 27.0924" stroke="white" stroke-opacity="0.3" stroke-width="0.7"/>
<path d="M56.3577 72.2808L66.5364 62.1021" stroke="white" stroke-opacity="0.25" stroke-width="0.7"/>
<path d="M20.0237 35.9463L30.2024 25.7675" stroke="white" stroke-opacity="0.25" stroke-width="0.7"/>
<circle cx="67.8676" cy="23.7357" r="11.0692" fill="url(#paint0_radial_28_1890)"/>
<circle cx="67.8675" cy="23.7357" r="2.56797" fill="#89FF69"/>
<circle cx="64.9919" cy="36.6534" r="0.777244" transform="rotate(45 64.9919 36.6534)" fill="white" fill-opacity="0.8"/>
<circle cx="54.5664" cy="26.2279" r="0.777244" transform="rotate(45 54.5664 26.2279)" fill="white" fill-opacity="0.8"/>
<circle cx="62.499" cy="39.1456" r="0.777244" transform="rotate(45 62.499 39.1456)" fill="white" fill-opacity="0.8"/>
<circle cx="52.0737" cy="28.7205" r="0.777244" transform="rotate(45 52.0737 28.7205)" fill="white" fill-opacity="0.8"/>
<circle cx="60.0061" cy="41.6385" r="0.777244" transform="rotate(45 60.0061 41.6385)" fill="white" fill-opacity="0.3"/>
<circle cx="49.5811" cy="31.2132" r="0.777244" transform="rotate(45 49.5811 31.2132)" fill="white" fill-opacity="0.3"/>
<circle cx="57.5137" cy="44.1314" r="0.777244" transform="rotate(45 57.5137 44.1314)" fill="white" fill-opacity="0.3"/>
<circle cx="47.0884" cy="33.7059" r="0.777244" transform="rotate(45 47.0884 33.7059)" fill="white" fill-opacity="0.3"/>
<circle cx="55.0212" cy="46.6234" r="0.777244" transform="rotate(45 55.0212 46.6234)" fill="white" fill-opacity="0.3"/>
<circle cx="44.5964" cy="36.1981" r="0.777244" transform="rotate(45 44.5964 36.1981)" fill="white" fill-opacity="0.3"/>
<circle cx="37.7811" cy="26.663" r="7.92858" fill="url(#paint1_radial_28_1890)"/>
<circle cx="37.7813" cy="26.6629" r="1.83937" fill="#69CDFF"/>
<circle cx="65.4498" cy="54.5377" r="7.92858" fill="url(#paint2_radial_28_1890)"/>
<circle cx="65.45" cy="54.5376" r="1.83937" fill="#69CDFF"/>
<defs>
<radialGradient id="paint0_radial_28_1890" cx="0" cy="0" r="1" gradientUnits="userSpaceOnUse" gradientTransform="translate(67.8676 23.7357) rotate(90) scale(11.0692)">
<stop stop-color="#89FF69"/>
<stop offset="0.210111" stop-color="#89FF69" stop-opacity="0.48"/>
<stop offset="0.44" stop-color="#89FF69" stop-opacity="0.28"/>
<stop offset="1" stop-color="#89FF69" stop-opacity="0"/>
</radialGradient>
<radialGradient id="paint1_radial_28_1890" cx="0" cy="0" r="1" gradientUnits="userSpaceOnUse" gradientTransform="translate(37.7811 26.663) rotate(90) scale(7.92858)">
<stop stop-color="#69CDFF"/>
<stop offset="0.210111" stop-color="#69CDFF" stop-opacity="0.48"/>
<stop offset="0.44" stop-color="#69CDFF" stop-opacity="0.28"/>
<stop offset="1" stop-color="#69CDFF" stop-opacity="0"/>
</radialGradient>
<radialGradient id="paint2_radial_28_1890" cx="0" cy="0" r="1" gradientUnits="userSpaceOnUse" gradientTransform="translate(65.4498 54.5377) rotate(90) scale(7.92858)">
<stop stop-color="#69CDFF"/>
<stop offset="0.210111" stop-color="#69CDFF" stop-opacity="0.48"/>
<stop offset="0.44" stop-color="#69CDFF" stop-opacity="0.28"/>
<stop offset="1" stop-color="#69CDFF" stop-opacity="0"/>
</radialGradient>
</defs>
</svg>
