<svg width="20" height="20" viewBox="0 0 20 20" fill="none" xmlns="http://www.w3.org/2000/svg">
<g id="telegram_symbol.svg">
<g id="Group">
<g id="Artboard">
<path id="Path-3" fill-rule="evenodd" clip-rule="evenodd" d="M1.43853 9.84125C5.99329 7.84398 9.03791 6.55306 10.5724 5.91978C14.9079 4.11737 15.8091 3.80072 16.3937 3.77637C16.5155 3.77637 16.8078 3.80072 17.0026 3.94687C17.1488 4.06865 17.1975 4.23915 17.2219 4.36093C17.2462 4.48272 17.2706 4.75065 17.2462 4.96986C17.0026 7.42991 16.004 13.4461 15.4682 16.1984C15.2489 17.3676 14.8105 17.7573 14.3964 17.806C13.4952 17.8791 12.7889 17.1971 11.912 16.6369C10.548 15.7356 9.76862 15.1754 8.42899 14.2986C6.8945 13.2756 7.89313 12.7154 8.76998 11.8142C8.9892 11.5706 13.0081 7.94141 13.0812 7.60041C13.0812 7.5517 13.1055 7.40556 13.0081 7.33249C12.9107 7.25942 12.7889 7.28377 12.6915 7.30813C12.5453 7.33249 10.3532 8.7939 6.09072 11.668C5.45743 12.1065 4.89722 12.3013 4.38573 12.3013C3.82552 12.3013 2.75381 11.9847 1.95003 11.7167C0.975751 11.4001 0.196328 11.2296 0.269399 10.6937C0.318113 10.4258 0.707824 10.1335 1.43853 9.84125Z" fill="white"/>
</g>
</g>
</g>
</svg>
